<svg width="25" height="25" viewBox="0 0 25 25" fill="none" xmlns="http://www.w3.org/2000/svg">
<path d="M11.9792 22.9167C10.3819 22.9167 9.02778 22.3611 7.91667 21.25C6.80556 20.1389 6.25 18.7847 6.25 17.1875V6.25C6.25 5.10417 6.65799 4.12326 7.47396 3.30729C8.28993 2.49132 9.27083 2.08333 10.4167 2.08333C11.5625 2.08333 12.5434 2.49132 13.3594 3.30729C14.1753 4.12326 14.5833 5.10417 14.5833 6.25V16.1458C14.5833 16.875 14.3316 17.4913 13.8281 17.9948C13.3247 18.4983 12.7083 18.75 11.9792 18.75C11.25 18.75 10.6337 18.4983 10.1302 17.9948C9.62674 17.4913 9.375 16.875 9.375 16.1458V6.25H10.9375V16.1458C10.9375 16.441 11.0373 16.6884 11.237 16.888C11.4366 17.0877 11.684 17.1875 11.9792 17.1875C12.2743 17.1875 12.5217 17.0877 12.7214 16.888C12.921 16.6884 13.0208 16.441 13.0208 16.1458V6.25C13.0208 5.52083 12.7691 4.90451 12.2656 4.40104C11.7622 3.89757 11.1458 3.64583 10.4167 3.64583C9.6875 3.64583 9.07118 3.89757 8.56771 4.40104C8.06424 4.90451 7.8125 5.52083 7.8125 6.25V17.1875C7.8125 18.3333 8.22049 19.3142 9.03646 20.1302C9.85243 20.9462 10.8333 21.3542 11.9792 21.3542C13.125 21.3542 14.1059 20.9462 14.9219 20.1302C15.7378 19.3142 16.1458 18.3333 16.1458 17.1875V6.25H17.7083V17.1875C17.7083 18.7847 17.1528 20.1389 16.0417 21.25C14.9306 22.3611 13.5764 22.9167 11.9792 22.9167Z" fill="#1D1B20"/>
</svg>