<svg width="25" height="25" viewBox="0 0 25 25" fill="none" xmlns="http://www.w3.org/2000/svg">
<path d="M19.7916 10.4167V12.5C19.7916 14.4339 19.0234 16.2885 17.656 17.656C16.2885 19.0234 14.4338 19.7917 12.5 19.7917M12.5 19.7917C10.5661 19.7917 8.71145 19.0234 7.34399 17.656C5.97654 16.2885 5.20831 14.4339 5.20831 12.5V10.4167M12.5 19.7917V23.9583M8.33331 23.9583H16.6666M12.5 1.04167C11.6712 1.04167 10.8763 1.37091 10.2903 1.95696C9.70422 2.54301 9.37498 3.33787 9.37498 4.16667V12.5C9.37498 13.3288 9.70422 14.1237 10.2903 14.7097C10.8763 15.2958 11.6712 15.625 12.5 15.625C13.3288 15.625 14.1236 15.2958 14.7097 14.7097C15.2957 14.1237 15.625 13.3288 15.625 12.5V4.16667C15.625 3.33787 15.2957 2.54301 14.7097 1.95696C14.1236 1.37091 13.3288 1.04167 12.5 1.04167Z" stroke="#1E1E1E" stroke-width="2" stroke-linecap="round" stroke-linejoin="round"/>
</svg>